<?xml version="1.0" standalone="no"?><svg xmlns="http://www.w3.org/2000/svg" viewBox="0 0 1440 320"><path fill="#0e726a" fill-opacity="1" d="M0,32L30,80C60,128,120,224,180,266.7C240,309,300,299,360,272C420,245,480,203,540,197.3C600,192,660,224,720,213.3C780,203,840,149,900,154.7C960,160,1020,224,1080,229.3C1140,235,1200,181,1260,154.7C1320,128,1380,128,1410,128L1440,128L1440,320L1410,320C1380,320,1320,320,1260,320C1200,320,1140,320,1080,320C1020,320,960,320,900,320C840,320,780,320,720,320C660,320,600,320,540,320C480,320,420,320,360,320C300,320,240,320,180,320C120,320,60,320,30,320L0,320Z"></path></svg>